<mxfile host="app.diagrams.net" modified="2024-04-27T13:35:01.042Z" agent="Mozilla/5.0 (Windows NT 10.0; Win64; x64) AppleWebKit/537.36 (KHTML, like Gecko) Chrome/120.0.0.0 Safari/537.36" version="24.3.1" etag="vOeyqgGXcGJY7-QrU3_K" type="github">
  <diagram name="第 1 页" id="p5ZMl_LtzHap2hAEUGwP">
    <mxGraphModel>
      <root>
        <mxCell id="0" />
        <mxCell id="1" parent="0" />
      </root>
    </mxGraphModel>
  </diagram>
</mxfile>
